<svg width="200" height="205" viewBox="0 0 200 205" fill="none" xmlns="http://www.w3.org/2000/svg">
<g filter="url(#filter0_f_1428_47825)">
<rect x="176.805" y="181.777" width="121.24" height="158.14" rx="16" transform="rotate(-180 176.805 181.777)" fill="url(#paint0_radial_1428_47825)"/>
<rect x="178.305" y="183.277" width="124.24" height="161.14" rx="17.5" transform="rotate(-180 178.305 183.277)" stroke="url(#paint1_radial_1428_47825)" stroke-opacity="0.32" stroke-width="3"/>
</g>
<rect x="176.805" y="181.775" width="121.24" height="158.14" rx="16" transform="rotate(-180 176.805 181.775)" fill="#0C111E"/>
<rect x="177.305" y="182.275" width="122.24" height="159.14" rx="16.5" transform="rotate(-180 177.305 182.275)" stroke="url(#paint2_radial_1428_47825)" stroke-opacity="0.6"/>
<path d="M82.1559 118.839L83.6047 121.829L86.918 122.272L84.4887 124.641L85.0166 127.94L82.0664 126.414L79.0794 128.01L79.6854 124.698L77.3114 122.385L80.6361 121.864L82.1559 118.839Z" fill="white"/>
<path d="M99.1247 118.915L100.573 121.905L103.887 122.348L101.457 124.717L101.985 128.016L99.0352 126.491L96.0481 128.086L96.6541 124.774L94.2802 122.461L97.6049 121.94L99.1247 118.915Z" fill="white"/>
<path d="M116.078 118.995L117.527 121.985L120.84 122.428L118.411 124.797L118.938 128.096L115.988 126.571L113.001 128.166L113.607 124.854L111.233 122.542L114.558 122.02L116.078 118.995Z" fill="white"/>
<path d="M133.047 119.077L134.495 122.067L137.809 122.51L135.379 124.879L135.907 128.178L132.957 126.653L129.97 128.249L130.576 124.936L128.202 122.624L131.527 122.102L133.047 119.077Z" fill="white"/>
<path d="M150.008 119.114L151.456 122.104L154.77 122.547L152.34 124.917L152.868 128.215L149.918 126.69L146.931 128.286L147.537 124.973L145.163 122.661L148.488 122.139L150.008 119.114Z" fill="white"/>
<path d="M84.2079 147.014L84.2079 148.609L78.4115 162.004L75.2817 162.004L81.0781 149.33L73.6138 149.33L73.6138 147.014L84.2079 147.014ZM96.2228 153.191L96.2228 155.785C96.2228 156.911 96.1027 157.882 95.8625 158.699C95.6223 159.509 95.2756 160.175 94.8226 160.696C94.3765 161.211 93.8446 161.592 93.2268 161.839C92.6091 162.086 91.9227 162.21 91.1677 162.21C90.5637 162.21 90.0009 162.134 89.4793 161.983C88.9576 161.825 88.4875 161.582 88.0688 161.252C87.6569 160.923 87.3 160.508 86.998 160.007C86.7029 159.499 86.4764 158.895 86.3185 158.195C86.1607 157.494 86.0817 156.691 86.0817 155.785L86.0817 153.191C86.0817 152.065 86.2018 151.101 86.4421 150.298C86.6892 149.488 87.0358 148.826 87.4819 148.311C87.9349 147.796 88.4703 147.419 89.088 147.178C89.7058 146.931 90.3921 146.808 91.1471 146.808C91.7511 146.808 92.3105 146.887 92.8253 147.044C93.3469 147.195 93.8171 147.432 94.2358 147.755C94.6545 148.077 95.0114 148.493 95.3065 149.001C95.6017 149.502 95.8282 150.102 95.986 150.802C96.1439 151.496 96.2228 152.292 96.2228 153.191ZM93.2474 156.177L93.2474 152.789C93.2474 152.247 93.2165 151.774 93.1548 151.369C93.0999 150.964 93.0141 150.62 92.8974 150.339C92.7807 150.051 92.6366 149.817 92.465 149.639C92.2934 149.461 92.0978 149.33 91.8781 149.248C91.6585 149.165 91.4148 149.124 91.1471 149.124C90.8108 149.124 90.5122 149.189 90.2514 149.32C89.9975 149.45 89.7813 149.66 89.6028 149.948C89.4243 150.229 89.2871 150.607 89.191 151.08C89.1018 151.547 89.0571 152.117 89.0571 152.789L89.0571 156.177C89.0571 156.719 89.0846 157.196 89.1395 157.608C89.2013 158.02 89.2905 158.373 89.4072 158.668C89.5307 158.956 89.6749 159.193 89.8396 159.379C90.0112 159.557 90.2068 159.687 90.4264 159.77C90.6529 159.852 90.9 159.893 91.1677 159.893C91.4972 159.893 91.7889 159.828 92.0428 159.698C92.3037 159.56 92.5233 159.348 92.7018 159.059C92.8871 158.764 93.0244 158.38 93.1136 157.906C93.2028 157.433 93.2474 156.856 93.2474 156.177ZM108.33 153.191L108.33 155.785C108.33 156.911 108.21 157.882 107.97 158.699C107.73 159.509 107.383 160.175 106.93 160.696C106.484 161.211 105.952 161.592 105.334 161.839C104.717 162.086 104.03 162.21 103.275 162.21C102.671 162.21 102.108 162.134 101.587 161.983C101.065 161.825 100.595 161.582 100.176 161.252C99.7645 160.923 99.4076 160.508 99.1056 160.007C98.8105 159.499 98.5839 158.895 98.4261 158.195C98.2682 157.494 98.1893 156.691 98.1893 155.785L98.1893 153.191C98.1893 152.065 98.3094 151.101 98.5496 150.298C98.7967 149.488 99.1433 148.826 99.5895 148.311C100.042 147.796 100.578 147.419 101.196 147.178C101.813 146.931 102.5 146.808 103.255 146.808C103.859 146.808 104.418 146.887 104.933 147.044C105.455 147.195 105.925 147.432 106.343 147.755C106.762 148.077 107.119 148.493 107.414 149.001C107.709 149.502 107.936 150.102 108.094 150.802C108.251 151.496 108.33 152.292 108.33 153.191ZM105.355 156.177L105.355 152.789C105.355 152.247 105.324 151.774 105.262 151.369C105.207 150.964 105.122 150.62 105.005 150.339C104.888 150.051 104.744 149.817 104.573 149.639C104.401 149.461 104.205 149.33 103.986 149.248C103.766 149.165 103.522 149.124 103.255 149.124C102.918 149.124 102.62 149.189 102.359 149.32C102.105 149.45 101.889 149.66 101.71 149.948C101.532 150.229 101.395 150.607 101.299 151.08C101.209 151.547 101.165 152.117 101.165 152.789L101.165 156.177C101.165 156.719 101.192 157.196 101.247 157.608C101.309 158.02 101.398 158.373 101.515 158.668C101.638 158.956 101.782 159.193 101.947 159.379C102.119 159.557 102.314 159.687 102.534 159.77C102.761 159.852 103.008 159.893 103.275 159.893C103.605 159.893 103.896 159.828 104.15 159.698C104.411 159.56 104.631 159.348 104.809 159.059C104.995 158.764 105.132 158.38 105.221 157.906C105.31 157.433 105.355 156.856 105.355 156.177ZM113.283 159.502L113.272 161.489C113.272 162.251 113.08 163.02 112.696 163.795C112.318 164.571 111.838 165.206 111.254 165.7L109.71 164.907C109.882 164.592 110.05 164.276 110.214 163.96C110.379 163.644 110.516 163.298 110.626 162.92C110.736 162.543 110.791 162.114 110.791 161.633L110.791 159.502L113.283 159.502ZM125.627 153.191L125.627 155.785C125.627 156.911 125.507 157.882 125.267 158.699C125.026 159.509 124.68 160.175 124.227 160.696C123.781 161.211 123.249 161.592 122.631 161.839C122.013 162.086 121.327 162.21 120.572 162.21C119.968 162.21 119.405 162.134 118.883 161.983C118.362 161.825 117.892 161.582 117.473 161.252C117.061 160.923 116.704 160.508 116.402 160.007C116.107 159.499 115.88 158.895 115.723 158.195C115.565 157.494 115.486 156.691 115.486 155.785L115.486 153.191C115.486 152.065 115.606 151.101 115.846 150.298C116.093 149.488 116.44 148.826 116.886 148.311C117.339 147.796 117.874 147.419 118.492 147.178C119.11 146.931 119.796 146.808 120.551 146.808C121.155 146.808 121.715 146.887 122.229 147.044C122.751 147.195 123.221 147.432 123.64 147.755C124.059 148.077 124.415 148.493 124.711 149.001C125.006 149.502 125.232 150.102 125.39 150.802C125.548 151.496 125.627 152.292 125.627 153.191ZM122.651 156.177L122.651 152.789C122.651 152.247 122.621 151.774 122.559 151.369C122.504 150.964 122.418 150.62 122.301 150.339C122.185 150.051 122.041 149.817 121.869 149.639C121.697 149.461 121.502 149.33 121.282 149.248C121.063 149.165 120.819 149.124 120.551 149.124C120.215 149.124 119.916 149.189 119.655 149.32C119.402 149.45 119.185 149.66 119.007 149.948C118.828 150.229 118.691 150.607 118.595 151.08C118.506 151.547 118.461 152.117 118.461 152.789L118.461 156.177C118.461 156.719 118.489 157.196 118.544 157.608C118.605 158.02 118.695 158.373 118.811 158.668C118.935 158.956 119.079 159.193 119.244 159.379C119.415 159.557 119.611 159.687 119.831 159.77C120.057 159.852 120.304 159.893 120.572 159.893C120.901 159.893 121.193 159.828 121.447 159.698C121.708 159.56 121.927 159.348 122.106 159.059C122.291 158.764 122.428 158.38 122.518 157.906C122.607 157.433 122.651 156.856 122.651 156.177ZM137.734 153.191L137.734 155.785C137.734 156.911 137.614 157.882 137.374 158.699C137.134 159.509 136.787 160.175 136.334 160.696C135.888 161.211 135.356 161.592 134.738 161.839C134.121 162.086 133.434 162.21 132.679 162.21C132.075 162.21 131.513 162.134 130.991 161.983C130.469 161.825 129.999 161.582 129.58 161.252C129.169 160.923 128.812 160.508 128.51 160.007C128.215 159.499 127.988 158.895 127.83 158.195C127.672 157.494 127.593 156.691 127.593 155.785L127.593 153.191C127.593 152.065 127.713 151.101 127.954 150.298C128.201 149.488 128.547 148.826 128.994 148.311C129.447 147.796 129.982 147.419 130.6 147.178C131.217 146.931 131.904 146.808 132.659 146.808C133.263 146.808 133.822 146.887 134.337 147.044C134.859 147.195 135.329 147.432 135.747 147.755C136.166 148.077 136.523 148.493 136.818 149.001C137.113 149.502 137.34 150.102 137.498 150.802C137.656 151.496 137.734 152.292 137.734 153.191ZM134.759 156.177L134.759 152.789C134.759 152.247 134.728 151.774 134.666 151.369C134.611 150.964 134.526 150.62 134.409 150.339C134.292 150.051 134.148 149.817 133.977 149.639C133.805 149.461 133.609 149.33 133.39 149.248C133.17 149.165 132.926 149.124 132.659 149.124C132.322 149.124 132.024 149.189 131.763 149.32C131.509 149.45 131.293 149.66 131.114 149.948C130.936 150.229 130.799 150.607 130.703 151.08C130.613 151.547 130.569 152.117 130.569 152.789L130.569 156.177C130.569 156.719 130.596 157.196 130.651 157.608C130.713 158.02 130.802 158.373 130.919 158.668C131.042 158.956 131.187 159.193 131.351 159.379C131.523 159.557 131.718 159.687 131.938 159.77C132.165 159.852 132.412 159.893 132.679 159.893C133.009 159.893 133.301 159.828 133.554 159.698C133.815 159.56 134.035 159.348 134.213 159.059C134.399 158.764 134.536 158.38 134.625 157.906C134.714 157.433 134.759 156.856 134.759 156.177ZM149.842 153.191L149.842 155.785C149.842 156.911 149.722 157.882 149.482 158.699C149.241 159.509 148.895 160.175 148.442 160.696C147.996 161.211 147.464 161.592 146.846 161.839C146.228 162.086 145.542 162.21 144.787 162.21C144.183 162.21 143.62 162.134 143.098 161.983C142.577 161.825 142.107 161.582 141.688 161.252C141.276 160.923 140.919 160.508 140.617 160.007C140.322 159.499 140.096 158.895 139.938 158.195C139.78 157.494 139.701 156.691 139.701 155.785L139.701 153.191C139.701 152.065 139.821 151.101 140.061 150.298C140.308 149.488 140.655 148.826 141.101 148.311C141.554 147.796 142.089 147.419 142.707 147.178C143.325 146.931 144.011 146.808 144.766 146.808C145.37 146.808 145.93 146.887 146.444 147.044C146.966 147.195 147.436 147.432 147.855 147.755C148.274 148.077 148.631 148.493 148.926 149.001C149.221 149.502 149.447 150.102 149.605 150.802C149.763 151.496 149.842 152.292 149.842 153.191ZM146.867 156.177L146.867 152.789C146.867 152.247 146.836 151.774 146.774 151.369C146.719 150.964 146.633 150.62 146.517 150.339C146.4 150.051 146.256 149.817 146.084 149.639C145.913 149.461 145.717 149.33 145.497 149.248C145.278 149.165 145.034 149.124 144.766 149.124C144.43 149.124 144.131 149.189 143.871 149.32C143.617 149.45 143.4 149.66 143.222 149.948C143.044 150.229 142.906 150.607 142.81 151.08C142.721 151.547 142.676 152.117 142.676 152.789L142.676 156.177C142.676 156.719 142.704 157.196 142.759 157.608C142.82 158.02 142.91 158.373 143.026 158.668C143.15 158.956 143.294 159.193 143.459 159.379C143.63 159.557 143.826 159.687 144.046 159.77C144.272 159.852 144.519 159.893 144.787 159.893C145.116 159.893 145.408 159.828 145.662 159.698C145.923 159.56 146.142 159.348 146.321 159.059C146.506 158.764 146.644 158.38 146.733 157.906C146.822 157.433 146.867 156.856 146.867 156.177ZM161.682 153.654L161.682 156.238L151.407 156.238L151.407 153.654L161.682 153.654ZM157.955 149.587L157.955 160.501L155.144 160.501L155.144 149.587L157.955 149.587Z" fill="white"/>
<g filter="url(#filter1_dddd_1428_47825)">
<rect x="20" y="52" width="116" height="41" rx="8" fill="#0C111E"/>
</g>
<path d="M42.298 67.27V77H40.702V70.336L37.734 77H36.628L33.646 70.336V77H32.05V67.27H33.772L37.188 74.9L40.59 67.27H42.298ZM51.3257 72.954C51.3257 73.2433 51.307 73.5047 51.2697 73.738H45.3757C45.4224 74.354 45.651 74.8487 46.0617 75.222C46.4724 75.5953 46.9764 75.782 47.5737 75.782C48.4324 75.782 49.039 75.4227 49.3937 74.704H51.1157C50.8824 75.4133 50.4577 75.9967 49.8417 76.454C49.235 76.902 48.479 77.126 47.5737 77.126C46.8364 77.126 46.1737 76.9627 45.5857 76.636C45.007 76.3 44.5497 75.8333 44.2137 75.236C43.887 74.6293 43.7237 73.9293 43.7237 73.136C43.7237 72.3427 43.8824 71.6473 44.1997 71.05C44.5264 70.4433 44.979 69.9767 45.5577 69.65C46.1457 69.3233 46.8177 69.16 47.5737 69.16C48.3017 69.16 48.9504 69.3187 49.5197 69.636C50.089 69.9533 50.5324 70.4013 50.8497 70.98C51.167 71.5493 51.3257 72.2073 51.3257 72.954ZM49.6597 72.45C49.6504 71.862 49.4404 71.3907 49.0297 71.036C48.619 70.6813 48.1104 70.504 47.5037 70.504C46.953 70.504 46.4817 70.6813 46.0897 71.036C45.6977 71.3813 45.4644 71.8527 45.3897 72.45H49.6597ZM62.0943 69.16C62.701 69.16 63.2423 69.286 63.7183 69.538C64.2037 69.79 64.5817 70.1633 64.8523 70.658C65.1323 71.1527 65.2723 71.75 65.2723 72.45V77H63.6903V72.688C63.6903 71.9973 63.5177 71.47 63.1723 71.106C62.827 70.7327 62.3557 70.546 61.7583 70.546C61.161 70.546 60.685 70.7327 60.3303 71.106C59.985 71.47 59.8123 71.9973 59.8123 72.688V77H58.2303V72.688C58.2303 71.9973 58.0577 71.47 57.7123 71.106C57.367 70.7327 56.8957 70.546 56.2983 70.546C55.701 70.546 55.225 70.7327 54.8703 71.106C54.525 71.47 54.3523 71.9973 54.3523 72.688V77H52.7563V69.286H54.3523V70.168C54.6137 69.8507 54.945 69.6033 55.3463 69.426C55.7477 69.2487 56.177 69.16 56.6343 69.16C57.2503 69.16 57.801 69.2907 58.2863 69.552C58.7717 69.8133 59.145 70.1913 59.4063 70.686C59.6397 70.2193 60.0037 69.8507 60.4983 69.58C60.993 69.3 61.525 69.16 62.0943 69.16ZM68.7592 70.434C69.0299 70.0607 69.3985 69.7573 69.8652 69.524C70.3412 69.2813 70.8685 69.16 71.4472 69.16C72.1285 69.16 72.7445 69.3233 73.2952 69.65C73.8459 69.9767 74.2799 70.4433 74.5972 71.05C74.9145 71.6473 75.0732 72.3333 75.0732 73.108C75.0732 73.8827 74.9145 74.578 74.5972 75.194C74.2799 75.8007 73.8412 76.2767 73.2812 76.622C72.7305 76.958 72.1192 77.126 71.4472 77.126C70.8499 77.126 70.3179 77.0093 69.8512 76.776C69.3939 76.5427 69.0299 76.244 68.7592 75.88V77H67.1632V66.64H68.7592V70.434ZM73.4492 73.108C73.4492 72.576 73.3372 72.1187 73.1132 71.736C72.8985 71.344 72.6092 71.05 72.2452 70.854C71.8905 70.6487 71.5079 70.546 71.0972 70.546C70.6959 70.546 70.3132 70.6487 69.9492 70.854C69.5945 71.0593 69.3052 71.358 69.0812 71.75C68.8665 72.142 68.7592 72.604 68.7592 73.136C68.7592 73.668 68.8665 74.1347 69.0812 74.536C69.3052 74.928 69.5945 75.2267 69.9492 75.432C70.3132 75.6373 70.6959 75.74 71.0972 75.74C71.5079 75.74 71.8905 75.6373 72.2452 75.432C72.6092 75.2173 72.8985 74.9093 73.1132 74.508C73.3372 74.1067 73.4492 73.64 73.4492 73.108ZM83.5815 72.954C83.5815 73.2433 83.5628 73.5047 83.5255 73.738H77.6315C77.6781 74.354 77.9068 74.8487 78.3175 75.222C78.7281 75.5953 79.2321 75.782 79.8295 75.782C80.6881 75.782 81.2948 75.4227 81.6495 74.704H83.3715C83.1381 75.4133 82.7135 75.9967 82.0975 76.454C81.4908 76.902 80.7348 77.126 79.8295 77.126C79.0921 77.126 78.4295 76.9627 77.8415 76.636C77.2628 76.3 76.8055 75.8333 76.4695 75.236C76.1428 74.6293 75.9795 73.9293 75.9795 73.136C75.9795 72.3427 76.1381 71.6473 76.4555 71.05C76.7821 70.4433 77.2348 69.9767 77.8135 69.65C78.4015 69.3233 79.0735 69.16 79.8295 69.16C80.5575 69.16 81.2061 69.3187 81.7755 69.636C82.3448 69.9533 82.7881 70.4013 83.1055 70.98C83.4228 71.5493 83.5815 72.2073 83.5815 72.954ZM81.9155 72.45C81.9061 71.862 81.6961 71.3907 81.2855 71.036C80.8748 70.6813 80.3661 70.504 79.7595 70.504C79.2088 70.504 78.7375 70.6813 78.3455 71.036C77.9535 71.3813 77.7201 71.8527 77.6455 72.45H81.9155ZM86.6081 70.406C86.8414 70.014 87.1494 69.7107 87.5321 69.496C87.9241 69.272 88.3861 69.16 88.9181 69.16V70.812H88.5121C87.8868 70.812 87.4108 70.9707 87.0841 71.288C86.7668 71.6053 86.6081 72.156 86.6081 72.94V77H85.0121V69.286H86.6081V70.406ZM93.0452 77.126C92.4385 77.126 91.8925 77.0187 91.4072 76.804C90.9312 76.58 90.5532 76.2813 90.2732 75.908C89.9932 75.5253 89.8438 75.1007 89.8252 74.634H91.4772C91.5052 74.9607 91.6592 75.236 91.9392 75.46C92.2285 75.6747 92.5878 75.782 93.0172 75.782C93.4652 75.782 93.8105 75.698 94.0532 75.53C94.3052 75.3527 94.4312 75.1287 94.4312 74.858C94.4312 74.5687 94.2912 74.354 94.0112 74.214C93.7405 74.074 93.3065 73.92 92.7092 73.752C92.1305 73.5933 91.6592 73.4393 91.2952 73.29C90.9312 73.1407 90.6138 72.912 90.3432 72.604C90.0818 72.296 89.9512 71.89 89.9512 71.386C89.9512 70.9753 90.0725 70.602 90.3152 70.266C90.5578 69.9207 90.9032 69.65 91.3512 69.454C91.8085 69.258 92.3312 69.16 92.9192 69.16C93.7965 69.16 94.5012 69.384 95.0332 69.832C95.5745 70.2707 95.8638 70.8727 95.9012 71.638H94.3052C94.2772 71.2927 94.1372 71.0173 93.8852 70.812C93.6332 70.6067 93.2925 70.504 92.8632 70.504C92.4432 70.504 92.1212 70.5833 91.8972 70.742C91.6732 70.9007 91.5612 71.1107 91.5612 71.372C91.5612 71.5773 91.6358 71.75 91.7852 71.89C91.9345 72.03 92.1165 72.142 92.3312 72.226C92.5458 72.3007 92.8632 72.3987 93.2832 72.52C93.8432 72.6693 94.3005 72.8233 94.6552 72.982C95.0192 73.1313 95.3318 73.3553 95.5932 73.654C95.8545 73.9527 95.9898 74.3493 95.9992 74.844C95.9992 75.2827 95.8778 75.6747 95.6352 76.02C95.3925 76.3653 95.0472 76.636 94.5992 76.832C94.1605 77.028 93.6425 77.126 93.0452 77.126ZM101.574 69.16C102.162 69.16 102.684 69.286 103.142 69.538C103.608 69.79 103.972 70.1633 104.234 70.658C104.504 71.1527 104.64 71.75 104.64 72.45V77H103.058V72.688C103.058 71.9973 102.885 71.47 102.54 71.106C102.194 70.7327 101.723 70.546 101.126 70.546C100.528 70.546 100.052 70.7327 99.6977 71.106C99.3523 71.47 99.1797 71.9973 99.1797 72.688V77H97.5837V66.64H99.1797V70.182C99.4503 69.8553 99.791 69.6033 100.202 69.426C100.622 69.2487 101.079 69.16 101.574 69.16ZM107.347 68.264C107.058 68.264 106.815 68.166 106.619 67.97C106.423 67.774 106.325 67.5313 106.325 67.242C106.325 66.9527 106.423 66.71 106.619 66.514C106.815 66.318 107.058 66.22 107.347 66.22C107.627 66.22 107.865 66.318 108.061 66.514C108.257 66.71 108.355 66.9527 108.355 67.242C108.355 67.5313 108.257 67.774 108.061 67.97C107.865 68.166 107.627 68.264 107.347 68.264ZM108.131 69.286V77H106.535V69.286H108.131ZM111.683 70.42C111.954 70.0653 112.322 69.7667 112.789 69.524C113.256 69.2813 113.783 69.16 114.371 69.16C115.043 69.16 115.654 69.328 116.205 69.664C116.765 69.9907 117.204 70.4527 117.521 71.05C117.838 71.6473 117.997 72.3333 117.997 73.108C117.997 73.8827 117.838 74.578 117.521 75.194C117.204 75.8007 116.765 76.2767 116.205 76.622C115.654 76.958 115.043 77.126 114.371 77.126C113.783 77.126 113.26 77.0093 112.803 76.776C112.346 76.5333 111.972 76.2347 111.683 75.88V80.668H110.087V69.286H111.683V70.42ZM116.373 73.108C116.373 72.576 116.261 72.1187 116.037 71.736C115.822 71.344 115.533 71.05 115.169 70.854C114.814 70.6487 114.432 70.546 114.021 70.546C113.62 70.546 113.237 70.6487 112.873 70.854C112.518 71.0593 112.229 71.358 112.005 71.75C111.79 72.142 111.683 72.604 111.683 73.136C111.683 73.668 111.79 74.1347 112.005 74.536C112.229 74.928 112.518 75.2267 112.873 75.432C113.237 75.6373 113.62 75.74 114.021 75.74C114.432 75.74 114.814 75.6373 115.169 75.432C115.533 75.2173 115.822 74.9093 116.037 74.508C116.261 74.1067 116.373 73.64 116.373 73.108ZM122.235 77.126C121.628 77.126 121.082 77.0187 120.597 76.804C120.121 76.58 119.743 76.2813 119.463 75.908C119.183 75.5253 119.034 75.1007 119.015 74.634H120.667C120.695 74.9607 120.849 75.236 121.129 75.46C121.418 75.6747 121.778 75.782 122.207 75.782C122.655 75.782 123 75.698 123.243 75.53C123.495 75.3527 123.621 75.1287 123.621 74.858C123.621 74.5687 123.481 74.354 123.201 74.214C122.93 74.074 122.496 73.92 121.899 73.752C121.32 73.5933 120.849 73.4393 120.485 73.29C120.121 73.1407 119.804 72.912 119.533 72.604C119.272 72.296 119.141 71.89 119.141 71.386C119.141 70.9753 119.262 70.602 119.505 70.266C119.748 69.9207 120.093 69.65 120.541 69.454C120.998 69.258 121.521 69.16 122.109 69.16C122.986 69.16 123.691 69.384 124.223 69.832C124.764 70.2707 125.054 70.8727 125.091 71.638H123.495C123.467 71.2927 123.327 71.0173 123.075 70.812C122.823 70.6067 122.482 70.504 122.053 70.504C121.633 70.504 121.311 70.5833 121.087 70.742C120.863 70.9007 120.751 71.1107 120.751 71.372C120.751 71.5773 120.826 71.75 120.975 71.89C121.124 72.03 121.306 72.142 121.521 72.226C121.736 72.3007 122.053 72.3987 122.473 72.52C123.033 72.6693 123.49 72.8233 123.845 72.982C124.209 73.1313 124.522 73.3553 124.783 73.654C125.044 73.9527 125.18 74.3493 125.189 74.844C125.189 75.2827 125.068 75.6747 124.825 76.02C124.582 76.3653 124.237 76.636 123.789 76.832C123.35 77.028 122.832 77.126 122.235 77.126Z" fill="#FFFEF2"/>
<defs>
<filter id="filter0_f_1428_47825" x="32.5625" y="0.638672" width="167.242" height="204.139" filterUnits="userSpaceOnUse" color-interpolation-filters="sRGB">
<feFlood flood-opacity="0" result="BackgroundImageFix"/>
<feBlend mode="normal" in="SourceGraphic" in2="BackgroundImageFix" result="shape"/>
<feGaussianBlur stdDeviation="10" result="effect1_foregroundBlur_1428_47825"/>
</filter>
<filter id="filter1_dddd_1428_47825" x="0" y="32" width="156" height="81" filterUnits="userSpaceOnUse" color-interpolation-filters="sRGB">
<feFlood flood-opacity="0" result="BackgroundImageFix"/>
<feColorMatrix in="SourceAlpha" type="matrix" values="0 0 0 0 0 0 0 0 0 0 0 0 0 0 0 0 0 0 127 0" result="hardAlpha"/>
<feOffset dx="-4"/>
<feGaussianBlur stdDeviation="8"/>
<feComposite in2="hardAlpha" operator="out"/>
<feColorMatrix type="matrix" values="0 0 0 0 0.41486 0 0 0 0 0.41486 0 0 0 0 0.41486 0 0 0 0.18 0"/>
<feBlend mode="normal" in2="BackgroundImageFix" result="effect1_dropShadow_1428_47825"/>
<feColorMatrix in="SourceAlpha" type="matrix" values="0 0 0 0 0 0 0 0 0 0 0 0 0 0 0 0 0 0 127 0" result="hardAlpha"/>
<feOffset dx="4"/>
<feGaussianBlur stdDeviation="8"/>
<feComposite in2="hardAlpha" operator="out"/>
<feColorMatrix type="matrix" values="0 0 0 0 0.41486 0 0 0 0 0.41486 0 0 0 0 0.41486 0 0 0 0.18 0"/>
<feBlend mode="normal" in2="effect1_dropShadow_1428_47825" result="effect2_dropShadow_1428_47825"/>
<feColorMatrix in="SourceAlpha" type="matrix" values="0 0 0 0 0 0 0 0 0 0 0 0 0 0 0 0 0 0 127 0" result="hardAlpha"/>
<feOffset dy="-4"/>
<feGaussianBlur stdDeviation="8"/>
<feComposite in2="hardAlpha" operator="out"/>
<feColorMatrix type="matrix" values="0 0 0 0 0.41486 0 0 0 0 0.41486 0 0 0 0 0.41486 0 0 0 0.18 0"/>
<feBlend mode="normal" in2="effect2_dropShadow_1428_47825" result="effect3_dropShadow_1428_47825"/>
<feColorMatrix in="SourceAlpha" type="matrix" values="0 0 0 0 0 0 0 0 0 0 0 0 0 0 0 0 0 0 127 0" result="hardAlpha"/>
<feOffset dy="4"/>
<feGaussianBlur stdDeviation="8"/>
<feComposite in2="hardAlpha" operator="out"/>
<feColorMatrix type="matrix" values="0 0 0 0 0.41486 0 0 0 0 0.41486 0 0 0 0 0.41486 0 0 0 0.18 0"/>
<feBlend mode="normal" in2="effect3_dropShadow_1428_47825" result="effect4_dropShadow_1428_47825"/>
<feBlend mode="normal" in="SourceGraphic" in2="effect4_dropShadow_1428_47825" result="shape"/>
</filter>
<radialGradient id="paint0_radial_1428_47825" cx="0" cy="0" r="1" gradientUnits="userSpaceOnUse" gradientTransform="translate(176.331 260.847) scale(121.714 338.682)">
<stop stop-color="#F84D1A"/>
<stop offset="0.32" stop-color="#FFC261"/>
<stop offset="0.690039" stop-color="#1BD98F"/>
<stop offset="1" stop-color="#376FFF"/>
</radialGradient>
<radialGradient id="paint1_radial_1428_47825" cx="0" cy="0" r="1" gradientUnits="userSpaceOnUse" gradientTransform="translate(176.331 260.847) scale(121.714 338.682)">
<stop stop-color="#F84D1A"/>
<stop offset="0.32" stop-color="#F3A749"/>
<stop offset="0.675039" stop-color="#1BD98F"/>
<stop offset="1" stop-color="#376FFF"/>
</radialGradient>
<radialGradient id="paint2_radial_1428_47825" cx="0" cy="0" r="1" gradientUnits="userSpaceOnUse" gradientTransform="translate(176.331 260.845) scale(121.714 338.682)">
<stop stop-color="#F84D1A"/>
<stop offset="0.32" stop-color="#F3A749"/>
<stop offset="0.675039" stop-color="#1BD98F"/>
<stop offset="1" stop-color="#376FFF"/>
</radialGradient>
</defs>
</svg>
