<svg width="251" height="234" viewBox="0 0 251 234" fill="none" xmlns="http://www.w3.org/2000/svg">
<g filter="url(#filter0_d_1428_47848)">
<rect x="30" y="45.9668" width="170.71" height="135.936" rx="12" fill="#0C111E"/>
</g>
<path d="M39.7402 67V70H39.377V67.3809H39.3594L38.627 67.8672V67.498L39.377 67H39.7402ZM41.5815 70.041C41.3608 70.041 41.1729 69.981 41.0176 69.8608C40.8623 69.7397 40.7437 69.5645 40.6616 69.335C40.5796 69.1045 40.5386 68.8262 40.5386 68.5C40.5386 68.1758 40.5796 67.8989 40.6616 67.6694C40.7446 67.439 40.8638 67.2632 41.019 67.1421C41.1753 67.02 41.3628 66.959 41.5815 66.959C41.8003 66.959 41.9873 67.02 42.1426 67.1421C42.2988 67.2632 42.418 67.439 42.5 67.6694C42.583 67.8989 42.6245 68.1758 42.6245 68.5C42.6245 68.8262 42.5835 69.1045 42.5015 69.335C42.4194 69.5645 42.3008 69.7397 42.1455 69.8608C41.9902 69.981 41.8022 70.041 41.5815 70.041ZM41.5815 69.7187C41.8003 69.7187 41.9702 69.6133 42.0913 69.4023C42.2124 69.1914 42.2729 68.8906 42.2729 68.5C42.2729 68.2402 42.2451 68.019 42.1895 67.8364C42.1348 67.6538 42.0557 67.5146 41.9521 67.4189C41.8496 67.3232 41.7261 67.2754 41.5815 67.2754C41.3647 67.2754 41.1953 67.3823 41.0732 67.5962C40.9512 67.8091 40.8901 68.1104 40.8901 68.5C40.8901 68.7598 40.9175 68.9805 40.9722 69.1621C41.0269 69.3437 41.1055 69.4819 41.208 69.5767C41.3115 69.6714 41.436 69.7187 41.5815 69.7187ZM44.1597 70.041C43.939 70.041 43.751 69.981 43.5957 69.8608C43.4404 69.7397 43.3218 69.5645 43.2397 69.335C43.1577 69.1045 43.1167 68.8262 43.1167 68.5C43.1167 68.1758 43.1577 67.8989 43.2397 67.6694C43.3228 67.439 43.4419 67.2632 43.5972 67.1421C43.7534 67.02 43.9409 66.959 44.1597 66.959C44.3784 66.959 44.5654 67.02 44.7207 67.1421C44.877 67.2632 44.9961 67.439 45.0781 67.6694C45.1611 67.8989 45.2026 68.1758 45.2026 68.5C45.2026 68.8262 45.1616 69.1045 45.0796 69.335C44.9976 69.5645 44.8789 69.7397 44.7236 69.8608C44.5684 69.981 44.3804 70.041 44.1597 70.041ZM44.1597 69.7187C44.3784 69.7187 44.5483 69.6133 44.6694 69.4023C44.7905 69.1914 44.8511 68.8906 44.8511 68.5C44.8511 68.2402 44.8232 68.019 44.7676 67.8364C44.7129 67.6538 44.6338 67.5146 44.5303 67.4189C44.4277 67.3232 44.3042 67.2754 44.1597 67.2754C43.9429 67.2754 43.7734 67.3823 43.6514 67.5962C43.5293 67.8091 43.4683 68.1104 43.4683 68.5C43.4683 68.7598 43.4956 68.9805 43.5503 69.1621C43.605 69.3437 43.6836 69.4819 43.7861 69.5767C43.8896 69.6714 44.0142 69.7187 44.1597 69.7187Z" fill="#ADADAF"/>
<path d="M41.6465 88.0293C41.4453 88.0293 41.2676 87.9937 41.1133 87.9224C40.96 87.8501 40.8403 87.751 40.7544 87.625C40.6685 87.498 40.626 87.3535 40.627 87.1914C40.626 87.0645 40.6509 86.9473 40.7017 86.8398C40.7524 86.7314 40.8218 86.6411 40.9097 86.5688C40.9985 86.4956 41.0977 86.4492 41.207 86.4297V86.4121C41.0635 86.375 40.9492 86.2944 40.8643 86.1704C40.7793 86.0454 40.7373 85.9033 40.7383 85.7441C40.7373 85.5918 40.7759 85.4556 40.854 85.3354C40.9321 85.2153 41.0396 85.1206 41.1763 85.0513C41.314 84.9819 41.4707 84.9473 41.6465 84.9473C41.8203 84.9473 41.9756 84.9819 42.1123 85.0513C42.249 85.1206 42.3564 85.2153 42.4346 85.3354C42.5137 85.4556 42.5537 85.5918 42.5547 85.7441C42.5537 85.9033 42.5103 86.0454 42.4243 86.1704C42.3394 86.2944 42.2266 86.375 42.0859 86.4121V86.4297C42.1943 86.4492 42.292 86.4956 42.3789 86.5688C42.4658 86.6411 42.5352 86.7314 42.5869 86.8398C42.6387 86.9473 42.665 87.0645 42.666 87.1914C42.665 87.3535 42.6211 87.498 42.5342 87.625C42.4482 87.751 42.3286 87.8501 42.1753 87.9224C42.0229 87.9937 41.8467 88.0293 41.6465 88.0293ZM41.6465 87.707C41.7822 87.707 41.8994 87.6851 41.998 87.6411C42.0967 87.5972 42.1729 87.5352 42.2266 87.4551C42.2803 87.375 42.3076 87.2812 42.3086 87.1738C42.3076 87.0605 42.2783 86.9604 42.2207 86.8735C42.1631 86.7866 42.0845 86.7183 41.9849 86.6685C41.8862 86.6187 41.7734 86.5937 41.6465 86.5937C41.5186 86.5937 41.4043 86.6187 41.3037 86.6685C41.2041 86.7183 41.1255 86.7866 41.0679 86.8735C41.0112 86.9604 40.9834 87.0605 40.9844 87.1738C40.9834 87.2812 41.0093 87.375 41.062 87.4551C41.1157 87.5352 41.1924 87.5972 41.292 87.6411C41.3916 87.6851 41.5098 87.707 41.6465 87.707ZM41.6465 86.2832C41.7539 86.2832 41.8491 86.2617 41.9321 86.2187C42.0161 86.1758 42.082 86.1157 42.1299 86.0386C42.1777 85.9614 42.2021 85.8711 42.2031 85.7676C42.2021 85.666 42.1782 85.5776 42.1313 85.5024C42.0845 85.4263 42.0195 85.3677 41.9365 85.3267C41.8535 85.2847 41.7568 85.2637 41.6465 85.2637C41.5342 85.2637 41.436 85.2847 41.3521 85.3267C41.2681 85.3677 41.2031 85.4263 41.1572 85.5024C41.1113 85.5776 41.0889 85.666 41.0898 85.7676C41.0889 85.8711 41.1118 85.9614 41.1587 86.0386C41.2065 86.1157 41.2725 86.1758 41.3564 86.2187C41.4404 86.2617 41.5371 86.2832 41.6465 86.2832ZM44.2059 88.0293C43.9852 88.0293 43.7972 87.9692 43.642 87.8491C43.4867 87.728 43.368 87.5527 43.286 87.3232C43.204 87.0928 43.163 86.8145 43.163 86.4883C43.163 86.1641 43.204 85.8872 43.286 85.6577C43.369 85.4272 43.4882 85.2515 43.6434 85.1304C43.7997 85.0083 43.9872 84.9473 44.2059 84.9473C44.4247 84.9473 44.6117 85.0083 44.767 85.1304C44.9232 85.2515 45.0424 85.4272 45.1244 85.6577C45.2074 85.8872 45.2489 86.1641 45.2489 86.4883C45.2489 86.8145 45.2079 87.0928 45.1259 87.3232C45.0438 87.5527 44.9252 87.728 44.7699 87.8491C44.6146 87.9692 44.4266 88.0293 44.2059 88.0293ZM44.2059 87.707C44.4247 87.707 44.5946 87.6016 44.7157 87.3906C44.8368 87.1797 44.8973 86.8789 44.8973 86.4883C44.8973 86.2285 44.8695 86.0073 44.8138 85.8247C44.7592 85.6421 44.6801 85.5029 44.5765 85.4072C44.474 85.3115 44.3505 85.2637 44.2059 85.2637C43.9891 85.2637 43.8197 85.3706 43.6976 85.5845C43.5756 85.7974 43.5145 86.0986 43.5145 86.4883C43.5145 86.748 43.5419 86.9687 43.5966 87.1504C43.6512 87.332 43.7299 87.4702 43.8324 87.5649C43.9359 87.6597 44.0604 87.707 44.2059 87.707Z" fill="#ADADAF"/>
<path d="M41.6816 106.016C41.5586 106.014 41.4355 105.99 41.3125 105.945C41.1895 105.9 41.0771 105.825 40.9756 105.718C40.874 105.611 40.7925 105.466 40.731 105.283C40.6694 105.1 40.6387 104.869 40.6387 104.592C40.6387 104.326 40.6636 104.091 40.7134 103.886C40.7632 103.68 40.8354 103.506 40.9302 103.366C41.0249 103.224 41.1392 103.117 41.2729 103.043C41.4077 102.97 41.5596 102.934 41.7285 102.934C41.8965 102.934 42.0459 102.967 42.1768 103.035C42.3086 103.101 42.416 103.194 42.499 103.313C42.582 103.432 42.6357 103.569 42.6602 103.725H42.3027C42.2695 103.59 42.2051 103.478 42.1094 103.389C42.0137 103.3 41.8867 103.256 41.7285 103.256C41.4961 103.256 41.313 103.357 41.1792 103.559C41.0464 103.761 40.9795 104.045 40.9785 104.41H41.002C41.0566 104.327 41.1216 104.256 41.1968 104.198C41.2729 104.138 41.3569 104.092 41.4487 104.06C41.5405 104.028 41.6377 104.012 41.7402 104.012C41.9121 104.012 42.0693 104.055 42.2119 104.141C42.3545 104.226 42.4688 104.343 42.5547 104.494C42.6406 104.643 42.6836 104.814 42.6836 105.008C42.6836 105.193 42.6421 105.363 42.5591 105.518C42.4761 105.671 42.3594 105.793 42.209 105.884C42.0596 105.974 41.8838 106.018 41.6816 106.016ZM41.6816 105.693C41.8047 105.693 41.915 105.663 42.0127 105.601C42.1113 105.54 42.189 105.457 42.2456 105.354C42.3032 105.25 42.332 105.135 42.332 105.008C42.332 104.884 42.3042 104.771 42.2485 104.669C42.1938 104.567 42.1182 104.485 42.0215 104.425C41.9258 104.364 41.8164 104.334 41.6934 104.334C41.6006 104.334 41.5142 104.353 41.4341 104.39C41.354 104.426 41.2837 104.476 41.2231 104.539C41.1636 104.603 41.1167 104.675 41.0825 104.757C41.0483 104.838 41.0312 104.924 41.0312 105.014C41.0312 105.133 41.0591 105.244 41.1147 105.348C41.1714 105.451 41.2485 105.535 41.3462 105.598C41.4448 105.662 41.5566 105.693 41.6816 105.693ZM44.2382 106.016C44.0175 106.016 43.8295 105.956 43.6742 105.835C43.5189 105.714 43.4003 105.539 43.3182 105.31C43.2362 105.079 43.1952 104.801 43.1952 104.475C43.1952 104.15 43.2362 103.874 43.3182 103.644C43.4012 103.414 43.5204 103.238 43.6757 103.117C43.8319 102.995 44.0194 102.934 44.2382 102.934C44.4569 102.934 44.6439 102.995 44.7992 103.117C44.9554 103.238 45.0746 103.414 45.1566 103.644C45.2396 103.874 45.2811 104.15 45.2811 104.475C45.2811 104.801 45.2401 105.079 45.1581 105.31C45.076 105.539 44.9574 105.714 44.8021 105.835C44.6469 105.956 44.4589 106.016 44.2382 106.016ZM44.2382 105.693C44.4569 105.693 44.6268 105.588 44.7479 105.377C44.869 105.166 44.9296 104.865 44.9296 104.475C44.9296 104.215 44.9017 103.994 44.8461 103.811C44.7914 103.628 44.7123 103.489 44.6088 103.394C44.5062 103.298 44.3827 103.25 44.2382 103.25C44.0214 103.25 43.8519 103.357 43.7299 103.571C43.6078 103.784 43.5468 104.085 43.5468 104.475C43.5468 104.734 43.5741 104.955 43.6288 105.137C43.6835 105.318 43.7621 105.457 43.8646 105.551C43.9681 105.646 44.0927 105.693 44.2382 105.693Z" fill="#ADADAF"/>
<path d="M40.6152 123.348V123.049L41.9336 120.963H42.1504V121.426H42.0039L41.0078 123.002V123.025H42.7832V123.348H40.6152ZM42.0273 123.963V123.257V123.118V120.963H42.373V123.963H42.0273ZM44.3107 124.004C44.09 124.004 43.902 123.944 43.7467 123.824C43.5914 123.703 43.4728 123.527 43.3907 123.298C43.3087 123.067 43.2677 122.789 43.2677 122.463C43.2677 122.139 43.3087 121.862 43.3907 121.632C43.4738 121.402 43.5929 121.226 43.7482 121.105C43.9044 120.983 44.0919 120.922 44.3107 120.922C44.5294 120.922 44.7164 120.983 44.8717 121.105C45.028 121.226 45.1471 121.402 45.2291 121.632C45.3121 121.862 45.3536 122.139 45.3536 122.463C45.3536 122.789 45.3126 123.067 45.2306 123.298C45.1486 123.527 45.0299 123.703 44.8746 123.824C44.7194 123.944 44.5314 124.004 44.3107 124.004ZM44.3107 123.682C44.5294 123.682 44.6993 123.576 44.8204 123.365C44.9415 123.154 45.0021 122.854 45.0021 122.463C45.0021 122.203 44.9742 121.982 44.9186 121.799C44.8639 121.617 44.7848 121.478 44.6813 121.382C44.5787 121.286 44.4552 121.238 44.3107 121.238C44.0939 121.238 43.9244 121.345 43.8024 121.559C43.6803 121.772 43.6193 122.073 43.6193 122.463C43.6193 122.723 43.6466 122.943 43.7013 123.125C43.756 123.307 43.8346 123.445 43.9371 123.54C44.0406 123.634 44.1652 123.682 44.3107 123.682Z" fill="#ADADAF"/>
<path d="M40.6855 141.949V141.686L41.6758 140.602C41.792 140.475 41.8877 140.364 41.9629 140.271C42.0381 140.176 42.0938 140.087 42.1299 140.004C42.167 139.92 42.1855 139.832 42.1855 139.74C42.1855 139.635 42.1602 139.543 42.1094 139.466C42.0596 139.389 41.9912 139.33 41.9043 139.288C41.8174 139.246 41.7197 139.225 41.6113 139.225C41.4961 139.225 41.3955 139.249 41.3096 139.296C41.2246 139.343 41.1587 139.409 41.1118 139.494C41.0659 139.579 41.043 139.679 41.043 139.793H40.6973C40.6973 139.617 40.7378 139.463 40.8188 139.33C40.8999 139.197 41.0103 139.094 41.1499 139.02C41.2905 138.945 41.4482 138.908 41.623 138.908C41.7988 138.908 41.9546 138.945 42.0903 139.02C42.2261 139.094 42.3325 139.194 42.4097 139.32C42.4868 139.446 42.5254 139.586 42.5254 139.74C42.5254 139.851 42.5054 139.958 42.4653 140.064C42.4263 140.168 42.3579 140.285 42.2603 140.414C42.1636 140.542 42.0293 140.698 41.8574 140.883L41.1836 141.604V141.627H42.5781V141.949H40.6855ZM44.1616 141.99C43.9409 141.99 43.7529 141.93 43.5977 141.81C43.4424 141.689 43.3237 141.514 43.2417 141.284C43.1597 141.054 43.1187 140.775 43.1187 140.449C43.1187 140.125 43.1597 139.848 43.2417 139.619C43.3247 139.388 43.4438 139.212 43.5991 139.091C43.7554 138.969 43.9429 138.908 44.1616 138.908C44.3804 138.908 44.5674 138.969 44.7227 139.091C44.8789 139.212 44.998 139.388 45.0801 139.619C45.1631 139.848 45.2046 140.125 45.2046 140.449C45.2046 140.775 45.1636 141.054 45.0815 141.284C44.9995 141.514 44.8809 141.689 44.7256 141.81C44.5703 141.93 44.3823 141.99 44.1616 141.99ZM44.1616 141.668C44.3804 141.668 44.5503 141.562 44.6714 141.352C44.7925 141.141 44.853 140.84 44.853 140.449C44.853 140.189 44.8252 139.968 44.7695 139.786C44.7148 139.603 44.6357 139.464 44.5322 139.368C44.4297 139.272 44.3062 139.225 44.1616 139.225C43.9448 139.225 43.7754 139.332 43.6533 139.545C43.5313 139.758 43.4702 140.06 43.4702 140.449C43.4702 140.709 43.4976 140.93 43.5522 141.111C43.6069 141.293 43.6855 141.431 43.7881 141.526C43.8916 141.621 44.0161 141.668 44.1616 141.668Z" fill="#ADADAF"/>
<path d="M44.6641 159.979C44.4434 159.979 44.2554 159.918 44.1001 159.798C43.9448 159.677 43.8262 159.502 43.7441 159.272C43.6621 159.042 43.6211 158.764 43.6211 158.437C43.6211 158.113 43.6621 157.836 43.7441 157.607C43.8271 157.376 43.9463 157.201 44.1016 157.08C44.2578 156.958 44.4453 156.896 44.6641 156.896C44.8828 156.896 45.0698 156.958 45.2251 157.08C45.3813 157.201 45.5005 157.376 45.5825 157.607C45.6655 157.836 45.707 158.113 45.707 158.437C45.707 158.764 45.666 159.042 45.584 159.272C45.502 159.502 45.3833 159.677 45.228 159.798C45.0728 159.918 44.8848 159.979 44.6641 159.979ZM44.6641 159.656C44.8828 159.656 45.0527 159.551 45.1738 159.34C45.2949 159.129 45.3555 158.828 45.3555 158.437C45.3555 158.178 45.3276 157.957 45.272 157.774C45.2173 157.591 45.1382 157.452 45.0347 157.356C44.9321 157.261 44.8086 157.213 44.6641 157.213C44.4473 157.213 44.2778 157.32 44.1558 157.534C44.0337 157.747 43.9727 158.048 43.9727 158.437C43.9727 158.697 44 158.918 44.0547 159.1C44.1094 159.281 44.188 159.419 44.2905 159.514C44.394 159.609 44.5186 159.656 44.6641 159.656Z" fill="#ADADAF"/>
<line x1="48.0938" y1="67.8906" x2="192.938" y2="67.8906" stroke="#181E2C" stroke-width="0.34375" stroke-dasharray="0.69"/>
<line x1="48.0938" y1="86.0723" x2="192.938" y2="86.0723" stroke="#181E2C" stroke-width="0.34375" stroke-dasharray="0.69"/>
<line x1="48.0938" y1="104.254" x2="192.938" y2="104.254" stroke="#181E2C" stroke-width="0.34375" stroke-dasharray="0.69"/>
<line x1="48.0938" y1="122.434" x2="192.938" y2="122.434" stroke="#181E2C" stroke-width="0.34375" stroke-dasharray="0.69"/>
<line x1="48.0938" y1="140.615" x2="192.938" y2="140.615" stroke="#181E2C" stroke-width="0.34375" stroke-dasharray="0.69"/>
<line x1="48.0938" y1="158.797" x2="192.938" y2="158.797" stroke="#181E2C" stroke-width="0.34375"/>
<line x1="47.9219" y1="158.969" x2="47.9219" y2="68.0625" stroke="#181E2C" stroke-width="0.34375" stroke-dasharray="0.69"/>
<line x1="72.0625" y1="158.969" x2="72.0625" y2="68.0625" stroke="#181E2C" stroke-width="0.34375" stroke-dasharray="0.69"/>
<line x1="96.2031" y1="158.969" x2="96.2031" y2="68.0625" stroke="#181E2C" stroke-width="0.34375" stroke-dasharray="0.69"/>
<line x1="120.344" y1="158.969" x2="120.344" y2="68.0625" stroke="#181E2C" stroke-width="0.34375" stroke-dasharray="0.69"/>
<line x1="144.484" y1="158.969" x2="144.484" y2="68.0625" stroke="#181E2C" stroke-width="0.34375" stroke-dasharray="0.69"/>
<line x1="168.625" y1="158.969" x2="168.625" y2="68.0625" stroke="#181E2C" stroke-width="0.34375" stroke-dasharray="0.69"/>
<line x1="192.766" y1="158.969" x2="192.766" y2="68.0625" stroke="#181E2C" stroke-width="0.34375" stroke-dasharray="0.69"/>
<rect opacity="0.8" x="53" y="124" width="13.7812" height="35.355" fill="#13265A"/>
<rect opacity="0.8" x="76.9961" y="117" width="13.7812" height="42.12" fill="#13265A"/>
<rect opacity="0.8" x="101.004" y="110" width="13.7812" height="49.2675" fill="#13265A"/>
<rect opacity="0.8" x="126" y="104" width="12.7812" height="54.9588" fill="#13265A"/>
<rect opacity="0.8" x="149.996" y="98" width="13.7812" height="61.1937" fill="#13265A"/>
<rect opacity="0.8" x="174.004" y="87" width="14" height="72" fill="#13265A"/>
<path d="M53.6731 164.25V161.25H55.4719V161.572H54.0364V162.586H55.3371V162.908H54.0364V164.25H53.6731ZM56.0472 164.25V162H56.3929V164.25H56.0472ZM56.223 161.625C56.1556 161.625 56.0975 161.602 56.0487 161.556C56.0008 161.51 55.9769 161.455 55.9769 161.391C55.9769 161.326 56.0008 161.271 56.0487 161.225C56.0975 161.179 56.1556 161.156 56.223 161.156C56.2904 161.156 56.348 161.179 56.3959 161.225C56.4447 161.271 56.4691 161.326 56.4691 161.391C56.4691 161.455 56.4447 161.51 56.3959 161.556C56.348 161.602 56.2904 161.625 56.223 161.625ZM57.9343 165.141C57.7673 165.141 57.6238 165.119 57.5036 165.076C57.3835 165.034 57.2834 164.979 57.2033 164.909C57.1242 164.841 57.0613 164.768 57.0144 164.689L57.2898 164.496C57.321 164.537 57.3606 164.584 57.4084 164.637C57.4563 164.69 57.5217 164.737 57.6047 164.776C57.6887 164.816 57.7986 164.836 57.9343 164.836C58.1159 164.836 58.2658 164.792 58.384 164.704C58.5022 164.616 58.5613 164.479 58.5613 164.291V163.834H58.532C58.5066 163.875 58.4704 163.926 58.4236 163.986C58.3777 164.046 58.3113 164.099 58.2243 164.146C58.1384 164.192 58.0222 164.215 57.8757 164.215C57.6941 164.215 57.531 164.172 57.3865 164.086C57.2429 164 57.1291 163.875 57.0451 163.711C56.9621 163.547 56.9206 163.348 56.9206 163.113C56.9206 162.883 56.9612 162.682 57.0422 162.511C57.1233 162.339 57.2361 162.207 57.3806 162.113C57.5251 162.018 57.6921 161.971 57.8816 161.971C58.0281 161.971 58.1443 161.995 58.2302 162.044C58.3171 162.092 58.3835 162.146 58.4294 162.208C58.4763 162.269 58.5124 162.318 58.5378 162.357H58.573V162H58.907V164.314C58.907 164.508 58.863 164.665 58.7751 164.786C58.6882 164.908 58.571 164.998 58.4236 165.054C58.2771 165.112 58.114 165.141 57.9343 165.141ZM57.9226 163.904C58.0613 163.904 58.1784 163.873 58.2741 163.809C58.3699 163.746 58.4426 163.654 58.4924 163.535C58.5422 163.416 58.5671 163.273 58.5671 163.107C58.5671 162.945 58.5427 162.802 58.4939 162.678C58.445 162.554 58.3728 162.457 58.2771 162.387C58.1814 162.316 58.0632 162.281 57.9226 162.281C57.7761 162.281 57.654 162.318 57.5564 162.393C57.4597 162.467 57.3869 162.566 57.3381 162.691C57.2903 162.816 57.2663 162.955 57.2663 163.107C57.2663 163.264 57.2908 163.402 57.3396 163.522C57.3894 163.641 57.4626 163.735 57.5593 163.803C57.657 163.871 57.7781 163.904 57.9226 163.904ZM59.5398 164.25V162H59.8738V162.352H59.9031C59.9499 162.231 60.0256 162.138 60.1301 162.072C60.2346 162.004 60.3601 161.971 60.5066 161.971C60.655 161.971 60.7785 162.004 60.8772 162.072C60.9768 162.138 61.0544 162.231 61.1101 162.352H61.1335C61.1911 162.235 61.2776 162.143 61.3928 162.075C61.508 162.005 61.6462 161.971 61.8074 161.971C62.0085 161.971 62.1731 162.034 62.301 162.16C62.4289 162.285 62.4929 162.479 62.4929 162.744V164.25H62.1472V162.744C62.1472 162.578 62.1018 162.459 62.011 162.388C61.9201 162.317 61.8132 162.281 61.6902 162.281C61.532 162.281 61.4094 162.329 61.3225 162.425C61.2356 162.52 61.1921 162.64 61.1921 162.785V164.25H60.8406V162.709C60.8406 162.581 60.7991 162.478 60.716 162.4C60.633 162.321 60.5261 162.281 60.3952 162.281C60.3054 162.281 60.2214 162.305 60.1433 162.353C60.0661 162.401 60.0036 162.467 59.9558 162.552C59.9089 162.636 59.8855 162.733 59.8855 162.844V164.25H59.5398ZM63.7871 164.303C63.6445 164.303 63.5151 164.276 63.3989 164.222C63.2827 164.167 63.1904 164.089 63.1221 163.986C63.0537 163.883 63.0195 163.758 63.0195 163.611C63.0195 163.482 63.0449 163.378 63.0957 163.298C63.1465 163.217 63.2143 163.153 63.2993 163.107C63.3843 163.062 63.478 163.027 63.5805 163.005C63.6841 162.981 63.7881 162.963 63.8926 162.949C64.0293 162.932 64.1401 162.918 64.2251 162.91C64.311 162.9 64.3735 162.884 64.4126 162.861C64.4526 162.839 64.4726 162.8 64.4726 162.744V162.732C64.4726 162.588 64.4331 162.476 64.354 162.396C64.2759 162.315 64.1572 162.275 63.998 162.275C63.833 162.275 63.7036 162.312 63.6098 162.384C63.5161 162.456 63.4502 162.533 63.4121 162.615L63.084 162.498C63.1426 162.361 63.2207 162.255 63.3183 162.179C63.417 162.102 63.5244 162.048 63.6406 162.018C63.7578 161.986 63.873 161.971 63.9863 161.971C64.0586 161.971 64.1416 161.979 64.2353 161.997C64.3301 162.014 64.4214 162.048 64.5093 162.101C64.5981 162.154 64.6719 162.233 64.7304 162.34C64.789 162.446 64.8183 162.589 64.8183 162.768V164.25H64.4726V163.945H64.4551C64.4316 163.994 64.3926 164.046 64.3379 164.102C64.2832 164.158 64.2104 164.205 64.1196 164.244C64.0288 164.283 63.9179 164.303 63.7871 164.303ZM63.8398 163.992C63.9765 163.992 64.0918 163.965 64.1855 163.912C64.2803 163.858 64.3515 163.789 64.3994 163.704C64.4482 163.619 64.4726 163.529 64.4726 163.436V163.119C64.458 163.137 64.4258 163.153 64.376 163.167C64.3271 163.181 64.2705 163.193 64.206 163.204C64.1426 163.214 64.0805 163.223 64.02 163.23C63.9604 163.237 63.9121 163.243 63.875 163.248C63.7851 163.26 63.7012 163.279 63.623 163.305C63.5459 163.331 63.4834 163.369 63.4355 163.421C63.3887 163.472 63.3652 163.541 63.3652 163.629C63.3652 163.749 63.4096 163.84 63.4985 163.901C63.5884 163.962 63.7021 163.992 63.8398 163.992Z" fill="#ADADAF"/>
<path d="M79.0301 162C79.0125 161.852 78.9412 161.736 78.8162 161.654C78.6912 161.572 78.5379 161.531 78.3562 161.531C78.2234 161.531 78.1072 161.553 78.0076 161.596C77.909 161.639 77.8318 161.698 77.7762 161.773C77.7215 161.848 77.6941 161.934 77.6941 162.029C77.6941 162.109 77.7132 162.178 77.7513 162.236C77.7903 162.292 77.8401 162.34 77.9007 162.378C77.9612 162.415 78.0247 162.446 78.0911 162.47C78.1575 162.494 78.2185 162.513 78.2742 162.527L78.5789 162.609C78.657 162.63 78.7439 162.658 78.8396 162.694C78.9363 162.73 79.0286 162.78 79.1165 162.842C79.2054 162.904 79.2786 162.983 79.3362 163.08C79.3938 163.176 79.4226 163.295 79.4226 163.436C79.4226 163.598 79.3802 163.744 79.2952 163.875C79.2112 164.006 79.0882 164.11 78.9261 164.187C78.7649 164.264 78.5691 164.303 78.3387 164.303C78.1238 164.303 77.9378 164.268 77.7806 164.199C77.6243 164.129 77.5013 164.033 77.4114 163.909C77.3225 163.785 77.2723 163.641 77.2605 163.477H77.6355C77.6453 163.59 77.6834 163.684 77.7498 163.758C77.8172 163.831 77.9021 163.886 78.0047 163.922C78.1082 163.957 78.2195 163.975 78.3387 163.975C78.4773 163.975 78.6018 163.952 78.7122 163.907C78.8225 163.861 78.91 163.798 78.9744 163.717C79.0389 163.635 79.0711 163.539 79.0711 163.43C79.0711 163.33 79.0433 163.249 78.9876 163.187C78.9319 163.124 78.8587 163.073 78.7679 163.034C78.677 162.995 78.5789 162.961 78.4734 162.932L78.1043 162.826C77.8699 162.759 77.6844 162.663 77.5476 162.538C77.4109 162.413 77.3426 162.249 77.3426 162.047C77.3426 161.879 77.388 161.732 77.4788 161.607C77.5706 161.481 77.6936 161.384 77.8479 161.314C78.0032 161.244 78.1766 161.209 78.368 161.209C78.5613 161.209 78.7332 161.244 78.8836 161.313C79.034 161.381 79.1531 161.475 79.241 161.594C79.3299 161.713 79.3767 161.849 79.3816 162H79.0301ZM80.2953 163.43L80.2895 163.002H80.3598L81.3442 162H81.7719L80.7231 163.061H80.6938L80.2953 163.43ZM79.9731 164.25V161.25H80.3188V164.25H79.9731ZM81.4028 164.25L80.5238 163.137L80.7699 162.896L81.8422 164.25H81.4028ZM83.0675 164.297C82.8507 164.297 82.6637 164.249 82.5065 164.153C82.3503 164.057 82.2297 163.922 82.1447 163.749C82.0607 163.575 82.0187 163.373 82.0187 163.143C82.0187 162.912 82.0607 162.709 82.1447 162.533C82.2297 162.356 82.3478 162.219 82.4992 162.12C82.6515 162.021 82.8293 161.971 83.0324 161.971C83.1496 161.971 83.2653 161.99 83.3796 162.029C83.4938 162.068 83.5978 162.132 83.6916 162.22C83.7853 162.307 83.86 162.422 83.9157 162.565C83.9714 162.709 83.9992 162.886 83.9992 163.096V163.242H82.2648V162.943H83.6476C83.6476 162.816 83.6222 162.703 83.5715 162.604C83.5216 162.504 83.4504 162.425 83.3576 162.368C83.2658 162.31 83.1574 162.281 83.0324 162.281C82.8947 162.281 82.7756 162.315 82.675 162.384C82.5754 162.451 82.4987 162.539 82.445 162.647C82.3913 162.756 82.3644 162.872 82.3644 162.996V163.195C82.3644 163.365 82.3937 163.509 82.4523 163.627C82.5119 163.745 82.5944 163.834 82.6999 163.896C82.8053 163.956 82.9279 163.986 83.0675 163.986C83.1584 163.986 83.2404 163.974 83.3136 163.948C83.3879 163.922 83.4518 163.883 83.5055 163.831C83.5592 163.778 83.6007 163.713 83.63 163.635L83.964 163.729C83.9289 163.842 83.8698 163.941 83.7868 164.027C83.7038 164.112 83.6012 164.179 83.4792 164.227C83.3571 164.273 83.2199 164.297 83.0675 164.297ZM85.5036 162V162.293H84.3376V162H85.5036ZM84.6774 161.461H85.0231V163.605C85.0231 163.703 85.0373 163.776 85.0656 163.825C85.0949 163.873 85.132 163.905 85.1769 163.922C85.2228 163.937 85.2712 163.945 85.3219 163.945C85.36 163.945 85.3913 163.943 85.4157 163.939C85.4401 163.935 85.4596 163.931 85.4743 163.928L85.5446 164.238C85.5212 164.247 85.4884 164.256 85.4465 164.265C85.4045 164.274 85.3512 164.279 85.2868 164.279C85.1891 164.279 85.0934 164.258 84.9997 164.216C84.9069 164.174 84.8298 164.11 84.7682 164.024C84.7077 163.938 84.6774 163.83 84.6774 163.699V161.461ZM86.9135 164.297C86.7026 164.297 86.5209 164.247 86.3686 164.147C86.2162 164.048 86.099 163.911 86.017 163.736C85.935 163.561 85.894 163.361 85.894 163.137C85.894 162.908 85.936 162.707 86.0199 162.532C86.1049 162.356 86.2231 162.219 86.3744 162.12C86.5268 162.021 86.7045 161.971 86.9076 161.971C87.0658 161.971 87.2084 162 87.3354 162.059C87.4623 162.117 87.5663 162.199 87.6474 162.305C87.7284 162.41 87.7787 162.533 87.7983 162.674H87.4526C87.4262 162.571 87.3676 162.48 87.2768 162.401C87.1869 162.321 87.0658 162.281 86.9135 162.281C86.7787 162.281 86.6606 162.316 86.559 162.387C86.4584 162.456 86.3798 162.554 86.3232 162.681C86.2675 162.807 86.2397 162.955 86.2397 163.125C86.2397 163.299 86.267 163.45 86.3217 163.579C86.3774 163.708 86.4555 163.808 86.5561 163.879C86.6576 163.951 86.7768 163.986 86.9135 163.986C87.0033 163.986 87.0849 163.971 87.1581 163.939C87.2314 163.908 87.2934 163.863 87.3442 163.805C87.3949 163.746 87.4311 163.676 87.4526 163.594H87.7983C87.7787 163.727 87.7304 163.846 87.6532 163.953C87.5771 164.058 87.476 164.142 87.35 164.205C87.225 164.266 87.0795 164.297 86.9135 164.297ZM88.6493 162.896V164.25H88.3036V161.25H88.6493V162.352H88.6786C88.7314 162.235 88.8105 162.143 88.9159 162.075C89.0224 162.005 89.164 161.971 89.3407 161.971C89.4941 161.971 89.6283 162.001 89.7436 162.063C89.8588 162.124 89.9482 162.217 90.0116 162.343C90.0761 162.468 90.1083 162.627 90.1083 162.82V164.25H89.7626V162.844C89.7626 162.665 89.7162 162.527 89.6235 162.429C89.5317 162.331 89.4042 162.281 89.2411 162.281C89.1278 162.281 89.0263 162.305 88.9364 162.353C88.8476 162.401 88.7773 162.471 88.7255 162.562C88.6747 162.654 88.6493 162.766 88.6493 162.896Z" fill="#ADADAF"/>
<path d="M105.966 161.25L106.74 162.498H106.763L107.537 161.25H107.964L107.021 162.75L107.964 164.25H107.537L106.763 163.025H106.74L105.966 164.25H105.539L106.505 162.75L105.539 161.25H105.966ZM109.363 164.25H108.437V161.25H109.404C109.695 161.25 109.944 161.31 110.151 161.43C110.358 161.549 110.517 161.721 110.627 161.944C110.738 162.167 110.793 162.434 110.793 162.744C110.793 163.057 110.737 163.326 110.626 163.551C110.514 163.776 110.352 163.949 110.139 164.07C109.926 164.19 109.668 164.25 109.363 164.25ZM108.801 163.928H109.34C109.588 163.928 109.793 163.88 109.956 163.784C110.119 163.688 110.241 163.552 110.321 163.375C110.401 163.199 110.441 162.988 110.441 162.744C110.441 162.502 110.402 162.293 110.322 162.119C110.243 161.943 110.125 161.808 109.968 161.714C109.811 161.62 109.615 161.572 109.381 161.572H108.801V163.928Z" fill="#ADADAF"/>
<path d="M122.59 164.25V161.25H123.604C123.839 161.25 124.032 161.292 124.181 161.377C124.332 161.461 124.443 161.575 124.515 161.719C124.587 161.862 124.624 162.022 124.624 162.199C124.624 162.376 124.587 162.537 124.515 162.681C124.444 162.826 124.334 162.941 124.184 163.027C124.035 163.112 123.843 163.154 123.61 163.154H122.883V162.832H123.598C123.759 162.832 123.889 162.804 123.986 162.749C124.084 162.693 124.155 162.618 124.199 162.523C124.244 162.427 124.266 162.319 124.266 162.199C124.266 162.079 124.244 161.972 124.199 161.877C124.155 161.782 124.084 161.708 123.985 161.654C123.886 161.6 123.755 161.572 123.592 161.572H122.954V164.25H122.59ZM125.508 162.896V164.25H125.162V161.25H125.508V162.352H125.537C125.59 162.235 125.669 162.143 125.774 162.075C125.881 162.005 126.022 161.971 126.199 161.971C126.352 161.971 126.487 162.001 126.602 162.063C126.717 162.124 126.806 162.217 126.87 162.343C126.934 162.468 126.967 162.627 126.967 162.82V164.25H126.621V162.844C126.621 162.665 126.575 162.527 126.482 162.429C126.39 162.331 126.262 162.281 126.099 162.281C125.986 162.281 125.885 162.305 125.795 162.353C125.706 162.401 125.636 162.471 125.584 162.562C125.533 162.654 125.508 162.766 125.508 162.896ZM128.513 164.297C128.31 164.297 128.132 164.249 127.978 164.152C127.826 164.055 127.707 163.92 127.621 163.746C127.536 163.572 127.494 163.369 127.494 163.137C127.494 162.902 127.536 162.698 127.621 162.523C127.707 162.348 127.826 162.212 127.978 162.116C128.132 162.019 128.31 161.971 128.513 161.971C128.716 161.971 128.894 162.019 129.046 162.116C129.2 162.212 129.319 162.348 129.404 162.523C129.49 162.698 129.533 162.902 129.533 163.137C129.533 163.369 129.49 163.572 129.404 163.746C129.319 163.92 129.2 164.055 129.046 164.152C128.894 164.249 128.716 164.297 128.513 164.297ZM128.513 163.986C128.667 163.986 128.794 163.947 128.894 163.868C128.994 163.789 129.067 163.685 129.115 163.556C129.163 163.427 129.187 163.287 129.187 163.137C129.187 162.986 129.163 162.846 129.115 162.716C129.067 162.586 128.994 162.481 128.894 162.401C128.794 162.321 128.667 162.281 128.513 162.281C128.359 162.281 128.232 162.321 128.132 162.401C128.033 162.481 127.959 162.586 127.911 162.716C127.863 162.846 127.839 162.986 127.839 163.137C127.839 163.287 127.863 163.427 127.911 163.556C127.959 163.685 128.033 163.789 128.132 163.868C128.232 163.947 128.359 163.986 128.513 163.986ZM131.039 162V162.293H129.873V162H131.039ZM130.213 161.461H130.558V163.605C130.558 163.703 130.573 163.776 130.601 163.825C130.63 163.873 130.667 163.905 130.712 163.922C130.758 163.937 130.806 163.945 130.857 163.945C130.895 163.945 130.927 163.943 130.951 163.939C130.975 163.935 130.995 163.931 131.01 163.928L131.08 164.238C131.056 164.247 131.024 164.256 130.982 164.265C130.94 164.274 130.887 164.279 130.822 164.279C130.724 164.279 130.629 164.258 130.535 164.216C130.442 164.174 130.365 164.11 130.304 164.024C130.243 163.938 130.213 163.83 130.213 163.699V161.461ZM132.449 164.297C132.246 164.297 132.067 164.249 131.914 164.152C131.762 164.055 131.643 163.92 131.557 163.746C131.472 163.572 131.429 163.369 131.429 163.137C131.429 162.902 131.472 162.698 131.557 162.523C131.643 162.348 131.762 162.212 131.914 162.116C132.067 162.019 132.246 161.971 132.449 161.971C132.652 161.971 132.83 162.019 132.982 162.116C133.135 162.212 133.254 162.348 133.339 162.523C133.425 162.698 133.468 162.902 133.468 163.137C133.468 163.369 133.425 163.572 133.339 163.746C133.254 163.92 133.135 164.055 132.982 164.152C132.83 164.249 132.652 164.297 132.449 164.297ZM132.449 163.986C132.603 163.986 132.73 163.947 132.83 163.868C132.929 163.789 133.003 163.685 133.051 163.556C133.099 163.427 133.123 163.287 133.123 163.137C133.123 162.986 133.099 162.846 133.051 162.716C133.003 162.586 132.929 162.481 132.83 162.401C132.73 162.321 132.603 162.281 132.449 162.281C132.294 162.281 132.168 162.321 132.068 162.401C131.968 162.481 131.895 162.586 131.847 162.716C131.799 162.846 131.775 162.986 131.775 163.137C131.775 163.287 131.799 163.427 131.847 163.556C131.895 163.685 131.968 163.789 132.068 163.868C132.168 163.947 132.294 163.986 132.449 163.986ZM135.59 162.504L135.279 162.592C135.26 162.54 135.231 162.49 135.193 162.441C135.156 162.391 135.105 162.35 135.04 162.318C134.976 162.286 134.893 162.27 134.793 162.27C134.655 162.27 134.54 162.301 134.449 162.365C134.358 162.427 134.312 162.507 134.312 162.604C134.312 162.689 134.344 162.757 134.406 162.807C134.469 162.857 134.566 162.898 134.699 162.932L135.033 163.014C135.234 163.062 135.384 163.137 135.483 163.238C135.581 163.337 135.631 163.466 135.631 163.623C135.631 163.752 135.594 163.867 135.519 163.969C135.446 164.07 135.344 164.15 135.212 164.209C135.08 164.268 134.927 164.297 134.752 164.297C134.522 164.297 134.332 164.247 134.182 164.147C134.032 164.048 133.936 163.902 133.896 163.711L134.225 163.629C134.256 163.75 134.315 163.841 134.402 163.901C134.49 163.962 134.604 163.992 134.746 163.992C134.907 163.992 135.035 163.958 135.13 163.89C135.226 163.82 135.273 163.737 135.273 163.641C135.273 163.562 135.246 163.497 135.191 163.444C135.137 163.391 135.053 163.351 134.939 163.324L134.564 163.236C134.358 163.188 134.207 163.112 134.11 163.009C134.015 162.906 133.967 162.776 133.967 162.621C133.967 162.494 134.002 162.382 134.074 162.284C134.146 162.187 134.244 162.11 134.368 162.054C134.493 161.999 134.635 161.971 134.793 161.971C135.016 161.971 135.19 162.02 135.317 162.117C135.445 162.215 135.536 162.344 135.59 162.504ZM136.497 162.896V164.25H136.151V161.25H136.497V162.352H136.526C136.579 162.235 136.658 162.143 136.763 162.075C136.87 162.005 137.012 161.971 137.188 161.971C137.342 161.971 137.476 162.001 137.591 162.063C137.706 162.124 137.796 162.217 137.859 162.343C137.924 162.468 137.956 162.627 137.956 162.82V164.25H137.61V162.844C137.61 162.665 137.564 162.527 137.471 162.429C137.379 162.331 137.252 162.281 137.089 162.281C136.975 162.281 136.874 162.305 136.784 162.353C136.695 162.401 136.625 162.471 136.573 162.562C136.522 162.654 136.497 162.766 136.497 162.896ZM139.502 164.297C139.299 164.297 139.121 164.249 138.968 164.152C138.815 164.055 138.696 163.92 138.61 163.746C138.525 163.572 138.483 163.369 138.483 163.137C138.483 162.902 138.525 162.698 138.61 162.523C138.696 162.348 138.815 162.212 138.968 162.116C139.121 162.019 139.299 161.971 139.502 161.971C139.705 161.971 139.883 162.019 140.036 162.116C140.189 162.212 140.308 162.348 140.393 162.523C140.479 162.698 140.522 162.902 140.522 163.137C140.522 163.369 140.479 163.572 140.393 163.746C140.308 163.92 140.189 164.055 140.036 164.152C139.883 164.249 139.705 164.297 139.502 164.297ZM139.502 163.986C139.657 163.986 139.784 163.947 139.883 163.868C139.983 163.789 140.057 163.685 140.104 163.556C140.152 163.427 140.176 163.287 140.176 163.137C140.176 162.986 140.152 162.846 140.104 162.716C140.057 162.586 139.983 162.481 139.883 162.401C139.784 162.321 139.657 162.281 139.502 162.281C139.348 162.281 139.221 162.321 139.122 162.401C139.022 162.481 138.948 162.586 138.9 162.716C138.852 162.846 138.829 162.986 138.829 163.137C138.829 163.287 138.852 163.427 138.9 163.556C138.948 163.685 139.022 163.789 139.122 163.868C139.221 163.947 139.348 163.986 139.502 163.986ZM141.05 165.094V162H141.384V162.357H141.425C141.45 162.318 141.485 162.269 141.53 162.208C141.576 162.146 141.641 162.092 141.726 162.044C141.812 161.995 141.929 161.971 142.075 161.971C142.264 161.971 142.431 162.018 142.576 162.113C142.721 162.208 142.833 162.342 142.914 162.516C142.995 162.689 143.036 162.895 143.036 163.131C143.036 163.369 142.995 163.576 142.914 163.75C142.833 163.924 142.721 164.059 142.577 164.155C142.434 164.25 142.268 164.297 142.081 164.297C141.936 164.297 141.821 164.273 141.734 164.225C141.647 164.176 141.58 164.121 141.533 164.06C141.486 163.997 141.45 163.945 141.425 163.904H141.395V165.094H141.05ZM141.389 163.125C141.389 163.295 141.414 163.445 141.464 163.575C141.514 163.704 141.587 163.805 141.682 163.878C141.778 163.95 141.895 163.986 142.034 163.986C142.179 163.986 142.299 163.948 142.396 163.872C142.493 163.795 142.567 163.691 142.616 163.562C142.665 163.431 142.69 163.285 142.69 163.125C142.69 162.967 142.666 162.824 142.617 162.697C142.569 162.569 142.496 162.468 142.399 162.394C142.302 162.319 142.18 162.281 142.034 162.281C141.893 162.281 141.775 162.317 141.679 162.388C141.584 162.458 141.512 162.557 141.463 162.684C141.414 162.81 141.389 162.957 141.389 163.125Z" fill="#ADADAF"/>
<path d="M148.753 161.25V164.25H148.389V161.25H148.753ZM149.78 161.25V164.25H149.434V161.25H149.78ZM150.759 161.25V164.25H150.413V161.25H150.759ZM152.81 163.33V162H153.156V164.25H152.81V163.869H152.786C152.734 163.983 152.652 164.081 152.54 164.161C152.429 164.24 152.288 164.279 152.119 164.279C151.978 164.279 151.853 164.249 151.744 164.187C151.634 164.125 151.548 164.031 151.486 163.906C151.423 163.78 151.392 163.621 151.392 163.43V162H151.738V163.406C151.738 163.57 151.784 163.701 151.875 163.799C151.968 163.896 152.086 163.945 152.23 163.945C152.316 163.945 152.403 163.923 152.492 163.879C152.582 163.835 152.657 163.768 152.718 163.677C152.779 163.586 152.81 163.471 152.81 163.33ZM155.383 162.504L155.072 162.592C155.052 162.54 155.024 162.49 154.986 162.441C154.948 162.391 154.898 162.35 154.833 162.318C154.769 162.286 154.686 162.27 154.586 162.27C154.448 162.27 154.333 162.301 154.241 162.365C154.151 162.427 154.105 162.507 154.105 162.604C154.105 162.689 154.136 162.757 154.199 162.807C154.261 162.857 154.359 162.898 154.492 162.932L154.826 163.014C155.027 163.062 155.177 163.137 155.276 163.238C155.374 163.337 155.424 163.466 155.424 163.623C155.424 163.752 155.386 163.867 155.312 163.969C155.239 164.07 155.136 164.15 155.005 164.209C154.873 164.268 154.719 164.297 154.545 164.297C154.315 164.297 154.125 164.247 153.975 164.147C153.824 164.048 153.729 163.902 153.689 163.711L154.017 163.629C154.049 163.75 154.108 163.841 154.195 163.901C154.282 163.962 154.397 163.992 154.539 163.992C154.7 163.992 154.828 163.958 154.923 163.89C155.018 163.82 155.066 163.737 155.066 163.641C155.066 163.562 155.039 163.497 154.984 163.444C154.929 163.391 154.845 163.351 154.732 163.324L154.357 163.236C154.151 163.188 154 163.112 153.903 163.009C153.807 162.906 153.76 162.776 153.76 162.621C153.76 162.494 153.795 162.382 153.866 162.284C153.939 162.187 154.037 162.11 154.161 162.054C154.286 161.999 154.427 161.971 154.586 161.971C154.808 161.971 154.983 162.02 155.11 162.117C155.238 162.215 155.329 162.344 155.383 162.504ZM156.922 162V162.293H155.756V162H156.922ZM156.096 161.461H156.442V163.605C156.442 163.703 156.456 163.776 156.484 163.825C156.514 163.873 156.551 163.905 156.596 163.922C156.642 163.937 156.69 163.945 156.741 163.945C156.779 163.945 156.81 163.943 156.835 163.939C156.859 163.935 156.879 163.931 156.893 163.928L156.963 164.238C156.94 164.247 156.907 164.256 156.865 164.265C156.823 164.274 156.77 164.279 156.706 164.279C156.608 164.279 156.512 164.258 156.419 164.216C156.326 164.174 156.249 164.11 156.187 164.024C156.127 163.938 156.096 163.83 156.096 163.699V161.461ZM157.442 164.25V162H157.776V162.34H157.8C157.841 162.229 157.915 162.138 158.023 162.069C158.13 162 158.251 161.965 158.386 161.965C158.411 161.965 158.443 161.965 158.481 161.966C158.519 161.967 158.548 161.969 158.567 161.971V162.322C158.556 162.319 158.529 162.315 158.487 162.309C158.446 162.302 158.402 162.299 158.357 162.299C158.247 162.299 158.15 162.322 158.064 162.368C157.979 162.413 157.911 162.475 157.861 162.555C157.813 162.634 157.788 162.725 157.788 162.826V164.25H157.442ZM159.639 164.303C159.497 164.303 159.367 164.276 159.251 164.222C159.135 164.167 159.043 164.089 158.974 163.986C158.906 163.883 158.872 163.758 158.872 163.611C158.872 163.482 158.897 163.378 158.948 163.298C158.999 163.217 159.067 163.153 159.152 163.107C159.237 163.062 159.33 163.027 159.433 163.005C159.536 162.981 159.64 162.963 159.745 162.949C159.882 162.932 159.992 162.918 160.077 162.91C160.163 162.9 160.226 162.884 160.265 162.861C160.305 162.839 160.325 162.8 160.325 162.744V162.732C160.325 162.588 160.285 162.476 160.206 162.396C160.128 162.315 160.01 162.275 159.85 162.275C159.685 162.275 159.556 162.312 159.462 162.384C159.368 162.456 159.302 162.533 159.264 162.615L158.936 162.498C158.995 162.361 159.073 162.255 159.171 162.179C159.269 162.102 159.377 162.048 159.493 162.018C159.61 161.986 159.725 161.971 159.839 161.971C159.911 161.971 159.994 161.979 160.088 161.997C160.182 162.014 160.274 162.048 160.362 162.101C160.45 162.154 160.524 162.233 160.583 162.34C160.641 162.446 160.671 162.589 160.671 162.768V164.25H160.325V163.945H160.307C160.284 163.994 160.245 164.046 160.19 164.102C160.135 164.158 160.063 164.205 159.972 164.244C159.881 164.283 159.77 164.303 159.639 164.303ZM159.692 163.992C159.829 163.992 159.944 163.965 160.038 163.912C160.133 163.858 160.204 163.789 160.252 163.704C160.301 163.619 160.325 163.529 160.325 163.436V163.119C160.31 163.137 160.278 163.153 160.228 163.167C160.179 163.181 160.123 163.193 160.058 163.204C159.995 163.214 159.933 163.223 159.872 163.23C159.813 163.237 159.764 163.243 159.727 163.248C159.637 163.26 159.553 163.279 159.475 163.305C159.398 163.331 159.336 163.369 159.288 163.421C159.241 163.472 159.218 163.541 159.218 163.629C159.218 163.749 159.262 163.84 159.351 163.901C159.441 163.962 159.554 163.992 159.692 163.992ZM162.28 162V162.293H161.114V162H162.28ZM161.454 161.461H161.8V163.605C161.8 163.703 161.814 163.776 161.842 163.825C161.871 163.873 161.909 163.905 161.953 163.922C161.999 163.937 162.048 163.945 162.098 163.945C162.137 163.945 162.168 163.943 162.192 163.939C162.217 163.935 162.236 163.931 162.251 163.928L162.321 164.238C162.298 164.247 162.265 164.256 162.223 164.265C162.181 164.274 162.128 164.279 162.063 164.279C161.966 164.279 161.87 164.258 161.776 164.216C161.683 164.174 161.606 164.11 161.545 164.024C161.484 163.938 161.454 163.83 161.454 163.699V161.461ZM163.69 164.297C163.487 164.297 163.309 164.249 163.155 164.152C163.003 164.055 162.884 163.92 162.798 163.746C162.713 163.572 162.671 163.369 162.671 163.137C162.671 162.902 162.713 162.698 162.798 162.523C162.884 162.348 163.003 162.212 163.155 162.116C163.309 162.019 163.487 161.971 163.69 161.971C163.893 161.971 164.071 162.019 164.223 162.116C164.377 162.212 164.496 162.348 164.581 162.523C164.667 162.698 164.71 162.902 164.71 163.137C164.71 163.369 164.667 163.572 164.581 163.746C164.496 163.92 164.377 164.055 164.223 164.152C164.071 164.249 163.893 164.297 163.69 164.297ZM163.69 163.986C163.844 163.986 163.971 163.947 164.071 163.868C164.171 163.789 164.244 163.685 164.292 163.556C164.34 163.427 164.364 163.287 164.364 163.137C164.364 162.986 164.34 162.846 164.292 162.716C164.244 162.586 164.171 162.481 164.071 162.401C163.971 162.321 163.844 162.281 163.69 162.281C163.536 162.281 163.409 162.321 163.309 162.401C163.21 162.481 163.136 162.586 163.088 162.716C163.04 162.846 163.016 162.986 163.016 163.137C163.016 163.287 163.04 163.427 163.088 163.556C163.136 163.685 163.21 163.789 163.309 163.868C163.409 163.947 163.536 163.986 163.69 163.986ZM165.237 164.25V162H165.571V162.34H165.595C165.636 162.229 165.71 162.138 165.817 162.069C165.925 162 166.046 161.965 166.181 161.965C166.206 161.965 166.238 161.965 166.276 161.966C166.314 161.967 166.343 161.969 166.362 161.971V162.322C166.351 162.319 166.324 162.315 166.282 162.309C166.241 162.302 166.197 162.299 166.151 162.299C166.042 162.299 165.944 162.322 165.858 162.368C165.773 162.413 165.706 162.475 165.656 162.555C165.607 162.634 165.583 162.725 165.583 162.826V164.25H165.237Z" fill="#ADADAF"/>
<path d="M171.618 164.25H171.238L172.339 161.25H172.714L173.816 164.25H173.435L172.538 161.725H172.515L171.618 164.25ZM171.759 163.078H173.294V163.4H171.759V163.078ZM175.238 162V162.293H174.025V162H175.238ZM174.388 164.25V161.689C174.388 161.561 174.419 161.453 174.479 161.367C174.54 161.281 174.618 161.217 174.715 161.174C174.812 161.131 174.914 161.109 175.021 161.109C175.106 161.109 175.176 161.116 175.229 161.13C175.283 161.144 175.323 161.156 175.349 161.168L175.25 161.467C175.232 161.461 175.208 161.454 175.176 161.445C175.146 161.436 175.106 161.432 175.056 161.432C174.942 161.432 174.86 161.46 174.809 161.518C174.759 161.576 174.734 161.66 174.734 161.771V164.25H174.388ZM176.701 162V162.293H175.535V162H176.701ZM175.875 161.461H176.221V163.605C176.221 163.703 176.235 163.776 176.263 163.825C176.292 163.873 176.329 163.905 176.374 163.922C176.42 163.937 176.469 163.945 176.519 163.945C176.557 163.945 176.589 163.943 176.613 163.939C176.638 163.935 176.657 163.931 176.672 163.928L176.742 164.238C176.719 164.247 176.686 164.256 176.644 164.265C176.602 164.274 176.549 164.279 176.484 164.279C176.387 164.279 176.291 164.258 176.197 164.216C176.104 164.174 176.027 164.11 175.966 164.024C175.905 163.938 175.875 163.83 175.875 163.699V161.461ZM178.14 164.297C177.923 164.297 177.736 164.249 177.579 164.153C177.423 164.057 177.302 163.922 177.217 163.749C177.133 163.575 177.091 163.373 177.091 163.143C177.091 162.912 177.133 162.709 177.217 162.533C177.302 162.356 177.421 162.219 177.572 162.12C177.724 162.021 177.902 161.971 178.105 161.971C178.222 161.971 178.338 161.99 178.452 162.029C178.567 162.068 178.671 162.132 178.764 162.22C178.858 162.307 178.933 162.422 178.988 162.565C179.044 162.709 179.072 162.886 179.072 163.096V163.242H177.338V162.943H178.72C178.72 162.816 178.695 162.703 178.644 162.604C178.594 162.504 178.523 162.425 178.43 162.368C178.338 162.31 178.23 162.281 178.105 162.281C177.967 162.281 177.848 162.315 177.748 162.384C177.648 162.451 177.571 162.539 177.518 162.647C177.464 162.756 177.437 162.872 177.437 162.996V163.195C177.437 163.365 177.466 163.509 177.525 163.627C177.585 163.745 177.667 163.834 177.773 163.896C177.878 163.956 178.001 163.986 178.14 163.986C178.231 163.986 178.313 163.974 178.386 163.948C178.461 163.922 178.525 163.883 178.578 163.831C178.632 163.778 178.673 163.713 178.703 163.635L179.037 163.729C179.002 163.842 178.942 163.941 178.859 164.027C178.776 164.112 178.674 164.179 178.552 164.227C178.43 164.273 178.293 164.297 178.14 164.297ZM179.598 164.25V162H179.932V162.34H179.955C179.996 162.229 180.07 162.138 180.178 162.069C180.285 162 180.406 161.965 180.541 161.965C180.567 161.965 180.598 161.965 180.636 161.966C180.674 161.967 180.703 161.969 180.723 161.971V162.322C180.711 162.319 180.684 162.315 180.642 162.309C180.601 162.302 180.558 162.299 180.512 162.299C180.402 162.299 180.305 162.322 180.219 162.368C180.134 162.413 180.067 162.475 180.017 162.555C179.968 162.634 179.943 162.725 179.943 162.826V164.25H179.598ZM181.179 164.25V161.25H182.99V161.572H181.543V162.586H182.896V162.908H181.543V163.928H183.013V164.25H181.179ZM184.6 162V162.293H183.387V162H184.6ZM183.75 164.25V161.689C183.75 161.561 183.78 161.453 183.841 161.367C183.902 161.281 183.98 161.217 184.077 161.174C184.174 161.131 184.276 161.109 184.383 161.109C184.468 161.109 184.537 161.116 184.591 161.13C184.645 161.144 184.685 161.156 184.711 161.168L184.612 161.467C184.594 161.461 184.57 161.454 184.538 161.445C184.508 161.436 184.468 161.432 184.418 161.432C184.304 161.432 184.221 161.46 184.171 161.518C184.121 161.576 184.096 161.66 184.096 161.771V164.25H183.75ZM186.086 162V162.293H184.873V162H186.086ZM185.237 164.25V161.689C185.237 161.561 185.267 161.453 185.327 161.367C185.388 161.281 185.467 161.217 185.563 161.174C185.66 161.131 185.762 161.109 185.869 161.109C185.954 161.109 186.024 161.116 186.077 161.13C186.131 161.144 186.171 161.156 186.198 161.168L186.098 161.467C186.08 161.461 186.056 161.454 186.025 161.445C185.994 161.436 185.954 161.432 185.905 161.432C185.79 161.432 185.708 161.46 185.657 161.518C185.607 161.576 185.582 161.66 185.582 161.771V164.25H185.237ZM187.421 164.297C187.205 164.297 187.018 164.249 186.86 164.153C186.704 164.057 186.584 163.922 186.499 163.749C186.415 163.575 186.373 163.373 186.373 163.143C186.373 162.912 186.415 162.709 186.499 162.533C186.584 162.356 186.702 162.219 186.853 162.12C187.005 162.021 187.183 161.971 187.386 161.971C187.504 161.971 187.619 161.99 187.733 162.029C187.848 162.068 187.952 162.132 188.046 162.22C188.139 162.307 188.214 162.422 188.27 162.565C188.325 162.709 188.353 162.886 188.353 163.096V163.242H186.619V162.943H188.002C188.002 162.816 187.976 162.703 187.925 162.604C187.876 162.504 187.804 162.425 187.712 162.368C187.62 162.31 187.511 162.281 187.386 162.281C187.249 162.281 187.129 162.315 187.029 162.384C186.929 162.451 186.853 162.539 186.799 162.647C186.745 162.756 186.718 162.872 186.718 162.996V163.195C186.718 163.365 186.748 163.509 186.806 163.627C186.866 163.745 186.948 163.834 187.054 163.896C187.159 163.956 187.282 163.986 187.421 163.986C187.512 163.986 187.594 163.974 187.668 163.948C187.742 163.922 187.806 163.883 187.859 163.831C187.913 163.778 187.955 163.713 187.984 163.635L188.318 163.729C188.283 163.842 188.224 163.941 188.141 164.027C188.058 164.112 187.955 164.179 187.833 164.227C187.711 164.273 187.574 164.297 187.421 164.297ZM189.793 164.297C189.582 164.297 189.4 164.247 189.248 164.147C189.096 164.048 188.979 163.911 188.897 163.736C188.815 163.561 188.774 163.361 188.774 163.137C188.774 162.908 188.816 162.707 188.9 162.532C188.984 162.356 189.103 162.219 189.254 162.12C189.406 162.021 189.584 161.971 189.787 161.971C189.945 161.971 190.088 162 190.215 162.059C190.342 162.117 190.446 162.199 190.527 162.305C190.608 162.41 190.658 162.533 190.678 162.674H190.332C190.306 162.571 190.247 162.48 190.156 162.401C190.067 162.321 189.945 162.281 189.793 162.281C189.658 162.281 189.54 162.316 189.439 162.387C189.338 162.456 189.259 162.554 189.203 162.681C189.147 162.807 189.119 162.955 189.119 163.125C189.119 163.299 189.147 163.45 189.201 163.579C189.257 163.708 189.335 163.808 189.436 163.879C189.537 163.951 189.656 163.986 189.793 163.986C189.883 163.986 189.964 163.971 190.038 163.939C190.111 163.908 190.173 163.863 190.224 163.805C190.275 163.746 190.311 163.676 190.332 163.594H190.678C190.658 163.727 190.61 163.846 190.533 163.953C190.457 164.058 190.356 164.142 190.23 164.205C190.105 164.266 189.959 164.297 189.793 164.297ZM192.162 162V162.293H190.996V162H192.162ZM191.336 161.461H191.681V163.605C191.681 163.703 191.695 163.776 191.724 163.825C191.753 163.873 191.79 163.905 191.835 163.922C191.881 163.937 191.929 163.945 191.98 163.945C192.018 163.945 192.049 163.943 192.074 163.939C192.098 163.935 192.118 163.931 192.132 163.928L192.203 164.238C192.179 164.247 192.147 164.256 192.105 164.265C192.063 164.274 192.009 164.279 191.945 164.279C191.847 164.279 191.752 164.258 191.658 164.216C191.565 164.174 191.488 164.11 191.426 164.024C191.366 163.938 191.336 163.83 191.336 163.699V161.461Z" fill="#ADADAF"/>
<g filter="url(#filter1_dddd_1428_47848)">
<rect x="162.773" y="20.0449" width="63.2259" height="63.2259" rx="12" fill="#0C111E"/>
</g>
<circle cx="194.39" cy="51.6578" r="18.3355" fill="#374056"/>
<path d="M190.009 46.5C190.009 44.294 191.803 42.5 194.009 42.5C196.215 42.5 198.009 44.294 198.009 46.5C198.009 48.706 196.215 50.5 194.009 50.5C191.803 50.5 190.009 48.706 190.009 46.5ZM196 52.5H192C187.94 52.5 186.5 55.473 186.5 58.019C186.5 60.296 187.711 61.5 190.003 61.5H197.997C200.289 61.5 201.5 60.296 201.5 58.019C201.5 55.473 200.06 52.5 196 52.5Z" fill="white"/>
<defs>
<filter id="filter0_d_1428_47848" x="0" y="17.9668" width="250.711" height="215.936" filterUnits="userSpaceOnUse" color-interpolation-filters="sRGB">
<feFlood flood-opacity="0" result="BackgroundImageFix"/>
<feColorMatrix in="SourceAlpha" type="matrix" values="0 0 0 0 0 0 0 0 0 0 0 0 0 0 0 0 0 0 127 0" result="hardAlpha"/>
<feOffset dx="10" dy="12"/>
<feGaussianBlur stdDeviation="20"/>
<feColorMatrix type="matrix" values="0 0 0 0 0.103021 0 0 0 0 0.112307 0 0 0 0 0.179167 0 0 0 0.03 0"/>
<feBlend mode="normal" in2="BackgroundImageFix" result="effect1_dropShadow_1428_47848"/>
<feBlend mode="normal" in="SourceGraphic" in2="effect1_dropShadow_1428_47848" result="shape"/>
</filter>
<filter id="filter1_dddd_1428_47848" x="142.773" y="0.0449219" width="103.227" height="103.227" filterUnits="userSpaceOnUse" color-interpolation-filters="sRGB">
<feFlood flood-opacity="0" result="BackgroundImageFix"/>
<feColorMatrix in="SourceAlpha" type="matrix" values="0 0 0 0 0 0 0 0 0 0 0 0 0 0 0 0 0 0 127 0" result="hardAlpha"/>
<feOffset dx="-4"/>
<feGaussianBlur stdDeviation="8"/>
<feComposite in2="hardAlpha" operator="out"/>
<feColorMatrix type="matrix" values="0 0 0 0 0.41486 0 0 0 0 0.41486 0 0 0 0 0.41486 0 0 0 0.18 0"/>
<feBlend mode="normal" in2="BackgroundImageFix" result="effect1_dropShadow_1428_47848"/>
<feColorMatrix in="SourceAlpha" type="matrix" values="0 0 0 0 0 0 0 0 0 0 0 0 0 0 0 0 0 0 127 0" result="hardAlpha"/>
<feOffset dx="4"/>
<feGaussianBlur stdDeviation="8"/>
<feComposite in2="hardAlpha" operator="out"/>
<feColorMatrix type="matrix" values="0 0 0 0 0.41486 0 0 0 0 0.41486 0 0 0 0 0.41486 0 0 0 0.18 0"/>
<feBlend mode="normal" in2="effect1_dropShadow_1428_47848" result="effect2_dropShadow_1428_47848"/>
<feColorMatrix in="SourceAlpha" type="matrix" values="0 0 0 0 0 0 0 0 0 0 0 0 0 0 0 0 0 0 127 0" result="hardAlpha"/>
<feOffset dy="-4"/>
<feGaussianBlur stdDeviation="8"/>
<feComposite in2="hardAlpha" operator="out"/>
<feColorMatrix type="matrix" values="0 0 0 0 0.41486 0 0 0 0 0.41486 0 0 0 0 0.41486 0 0 0 0.18 0"/>
<feBlend mode="normal" in2="effect2_dropShadow_1428_47848" result="effect3_dropShadow_1428_47848"/>
<feColorMatrix in="SourceAlpha" type="matrix" values="0 0 0 0 0 0 0 0 0 0 0 0 0 0 0 0 0 0 127 0" result="hardAlpha"/>
<feOffset dy="4"/>
<feGaussianBlur stdDeviation="8"/>
<feComposite in2="hardAlpha" operator="out"/>
<feColorMatrix type="matrix" values="0 0 0 0 0.41486 0 0 0 0 0.41486 0 0 0 0 0.41486 0 0 0 0.18 0"/>
<feBlend mode="normal" in2="effect3_dropShadow_1428_47848" result="effect4_dropShadow_1428_47848"/>
<feBlend mode="normal" in="SourceGraphic" in2="effect4_dropShadow_1428_47848" result="shape"/>
</filter>
</defs>
</svg>
